<?xml version="1.0" encoding="iso-8859-1"?>
<!-- Uploaded to: SVG Repo, www.svgrepo.com, Generator: SVG Repo Mixer Tools -->
<svg fill="#000000" height="800px" width="800px" version="1.1" id="Layer_1" xmlns="http://www.w3.org/2000/svg" xmlns:xlink="http://www.w3.org/1999/xlink" 
	 viewBox="0 0 512 512" xml:space="preserve">
<g>
	<g>
		<path d="M503.744,304.513h-92.956V81.607c0-4.56-3.695-8.256-8.256-8.256H296.452c-1.344-6.593-4.269-12.614-8.354-17.662
			l37.479-37.479c3.224-3.224,3.224-8.452,0-11.675c-3.225-3.224-8.452-3.224-11.677,0l-38.602,38.599
			c-5.763-3.06-12.329-4.802-19.298-4.802c-6.968,0-13.535,1.742-19.299,4.803L198.101,6.534c-3.224-3.224-8.452-3.224-11.675,0
			c-3.224,3.224-3.224,8.452,0,11.675l37.48,37.479c-4.085,5.047-7.011,11.069-8.354,17.662H109.469
			c-4.56,0-8.256,3.697-8.256,8.256v38.393c0,4.56,3.697,8.256,8.256,8.256s8.256-3.697,8.256-8.256V89.863h276.549v214.65H117.725
			V147.52c0-4.56-3.697-8.256-8.256-8.256s-8.256,3.697-8.256,8.256v156.993H8.256c-4.56,0-8.256,3.697-8.256,8.256v144.103
			c0,4.56,3.697,8.256,8.256,8.256h44.239c1.569,4.892,4.517,9.29,8.613,12.655c2.228,1.822,2.672,5.319,1.007,7.967l-5.956,9.489
			c-1.597,2.545-1.685,5.756-0.231,8.385c1.453,2.629,4.221,4.26,7.225,4.26h33.828c4.56,0,8.256-3.697,8.256-8.256v-34.5h191.736
			c4.561,0,8.256-3.697,8.256-8.256s-3.695-8.256-8.256-8.256H181.675v-127.59h148.65v127.59h-5.831
			c-4.561,0-8.256,3.697-8.256,8.256s3.695,8.256,8.256,8.256h82.267v34.5c0,4.56,3.695,8.256,8.256,8.256h33.828
			c3.004,0,5.771-1.631,7.225-4.261c1.453-2.629,1.364-5.84-0.232-8.384l-5.959-9.495c-1.661-2.643-1.216-6.14,1.025-7.973
			c4.086-3.356,7.031-7.752,8.6-12.643h44.239c4.561,0,8.256-3.697,8.256-8.256V312.769
			C512,308.209,508.303,304.513,503.744,304.513z M232.651,73.351c3.408-9.606,12.586-16.506,23.35-16.506
			c10.763,0,19.94,6.9,23.349,16.506H232.651z M77.763,491.372c3.939-9.12,1.604-19.875-6.058-26.244h17.02v26.244H77.763z
			 M165.163,448.617H16.512V321.025h148.65V448.617z M434.236,491.372h-10.962v-26.244h17.021
			C432.631,471.509,430.301,482.26,434.236,491.372z M495.486,448.617H346.837v-55.539h148.649V448.617z M495.488,376.564h-148.65
			v-55.539h148.65V376.564z"/>
	</g>
</g>
<g>
	<g>
		<path d="M326.715,116.688c-0.556-3.642-3.457-6.474-7.11-6.944c-58.013-7.453-116.845-7.453-174.86,0
			c-3.654,0.469-6.554,3.302-7.109,6.944c-8.151,53.416-8.151,107.583,0,160.998c0.555,3.642,3.456,6.475,7.109,6.944
			c29.007,3.726,58.218,5.589,87.43,5.589s58.423-1.863,87.431-5.589c3.653-0.469,6.553-3.302,7.109-6.944
			C334.866,224.271,334.866,170.104,326.715,116.688z M311.296,269.02c-52.537,6.25-105.705,6.25-158.242,0
			c-6.693-47.7-6.693-95.964,0-143.665c52.537-6.249,105.705-6.249,158.242,0C317.989,173.056,317.989,221.32,311.296,269.02z"/>
	</g>
</g>
<g>
	<g>
		<path d="M137.516,349.409c-3.052,2.195-4.236,6.365-2.772,9.834c1.377,3.263,4.686,5.318,8.228,5.075
			c3.64-0.25,6.793-3.03,7.492-6.616C151.868,350.489,143.506,345.098,137.516,349.409z"/>
	</g>
</g>
<g>
	<g>
		<path d="M211.339,351.504c-4.119-6.027-13.78-4.03-15.011,3.221c-1.265,7.45,7.798,12.538,13.531,7.612
			C212.988,359.65,213.6,354.937,211.339,351.504z"/>
	</g>
</g>
<g>
	<g>
		<path d="M425.748,343.281c-2.737-1.822-6.365-1.824-9.115-0.035c-3.265,2.122-4.608,6.456-3.093,10.053
			c1.109,2.838,3.927,4.813,6.935,5.068c3.695,0.313,7.199-1.966,8.459-5.444C430.204,349.414,428.85,345.345,425.748,343.281z"/>
	</g>
</g>
<g>
	<g>
		<path d="M428.787,417.488c-2.846-6.719-12.691-6.641-15.32,0.188c-2.666,6.925,4.799,13.644,11.401,10.333
			C428.664,426.105,430.443,421.421,428.787,417.488z"/>
	</g>
</g>
<g>
	<g>
		<path d="M376.233,219.625h-22.017c-4.561,0-8.256,3.697-8.256,8.256s3.695,8.256,8.256,8.256h22.017
			c4.561,0,8.256-3.697,8.256-8.256S380.793,219.625,376.233,219.625z"/>
	</g>
</g>
<g>
	<g>
		<path d="M376.233,270.263h-22.017c-4.561,0-8.256,3.697-8.256,8.256s3.695,8.256,8.256,8.256h22.017
			c4.561,0,8.256-3.697,8.256-8.256S380.793,270.263,376.233,270.263z"/>
	</g>
</g>
<g>
	<g>
		<path d="M376.233,244.944h-22.017c-4.561,0-8.256,3.697-8.256,8.256c0,4.56,3.695,8.256,8.256,8.256h22.017
			c4.561,0,8.256-3.697,8.256-8.256C384.489,248.64,380.793,244.944,376.233,244.944z"/>
	</g>
</g>
<g>
	<g>
		<path d="M365.224,109.542c-11.836,0-21.466,9.63-21.466,21.466c0,11.836,9.631,21.466,21.466,21.466
			c11.836,0,21.466-9.63,21.466-21.466C386.69,119.172,377.06,109.542,365.224,109.542z M365.224,135.962
			c-2.731,0-4.954-2.223-4.954-4.954c0-2.731,2.223-4.954,4.954-4.954s4.954,2.223,4.954,4.954
			C370.178,133.739,367.955,135.962,365.224,135.962z"/>
	</g>
</g>
<g>
	<g>
		<path d="M365.224,164.583c-11.836,0-21.466,9.63-21.466,21.466c0,11.836,9.631,21.466,21.466,21.466
			c11.836,0,21.466-9.63,21.466-21.466C386.69,174.213,377.06,164.583,365.224,164.583z M365.224,191.003
			c-2.731,0-4.954-2.223-4.954-4.954c0-2.731,2.223-4.954,4.954-4.954s4.954,2.223,4.954,4.954
			C370.178,188.78,367.955,191.003,365.224,191.003z"/>
	</g>
</g>
</svg>